<?xml version="1.0" encoding="UTF-8" standalone="no"?>
<svg width="156px" height="156px" viewBox="0 0 156 156" version="1.1" xmlns="http://www.w3.org/2000/svg" xmlns:xlink="http://www.w3.org/1999/xlink">
    <!-- Generator: Sketch 3.8.3 (29802) - http://www.bohemiancoding.com/sketch -->
    <title>Group 15</title>
    <desc>Created with Sketch.</desc>
    <defs></defs>
    <g id="Page-1" stroke="none" stroke-width="1" fill="none" fill-rule="evenodd">
        <g id="Landing" transform="translate(-439.000000, -881.000000)">
            <g id="Group-15" transform="translate(442.000000, 884.000000)">
                <path d="M57.6398709,66.1540239 L57.6398709,52.7073328 C57.6398709,42.5944434 65.6218758,34.4582519 75.8887414,34.4582519 C85.1951401,34.4582519 93.177145,42.5944434 93.177145,52.7073328 L93.177145,66.1540239 L57.6398709,66.1540239 Z M115.267883,71.9168916 C115.267883,68.5347541 112.29227,65.5428107 108.544615,66.1540239 L106.623681,66.1540239 L106.623681,52.7073328 C106.410244,35.0667365 92.4317827,21.0115607 75.8887414,21.0115607 C58.3852332,21.0115607 44.4067718,35.0667365 44.1933348,52.7073328 L44.1933348,66.1540239 L42.272401,66.1540239 C38.524746,65.5428107 35.5491329,68.5347541 35.5491329,71.9168916 L35.5491329,112.256965 C35.5491329,115.988367 38.524746,118.980311 42.272401,118.980311 L108.544615,118.980311 C112.29227,118.980311 115.267883,115.988367 115.267883,112.256965 L115.267883,71.9168916 Z M62.4422052,73.8378475 C55.8884313,73.8378475 51.8770697,78.909171 51.8770697,85.3635828 C51.8770697,92.624796 56.2839177,96.889318 62.4422052,96.889318 C67.1880415,96.889318 72.0468739,92.797682 72.0468739,85.3635828 C72.0468739,78.5633989 68.4874967,73.8378475 62.4422052,73.8378475 Z M67.2445396,111.296487 L88.3748107,73.8378475 L83.5724763,73.8378475 L62.4422052,111.296487 L67.2445396,111.296487 Z M88.3748107,88.2450166 C81.8210367,88.2450166 77.8096751,93.3163401 77.8096751,99.7707519 C77.8661732,107.031965 82.2730211,111.296487 88.3748107,111.296487 C93.1206469,111.296487 97.9794793,107.204851 97.9794793,99.7707519 C97.9794793,92.970568 94.4201021,88.2450166 88.3748107,88.2450166 Z M62.4422052,78.6402372 C64.399798,78.6402372 65.3236058,81.5709263 65.3236058,85.3635828 C65.3236058,89.5584907 64.24583,92.0869283 62.4422052,92.0869283 C59.7807589,92.0869283 58.6003378,89.2711682 58.6003378,85.3635828 C58.6003378,81.6283908 59.6781136,78.6402372 62.4422052,78.6402372 Z M88.3748107,93.0474063 C90.3772261,93.0474063 91.2562113,95.9780954 91.2562113,99.7707519 C91.2562113,103.96566 90.1704061,106.494097 88.3748107,106.494097 C85.6720705,106.494097 84.4828554,103.678337 84.5329432,99.7707519 C84.5345604,96.0355599 85.5686605,93.0474063 88.3748107,93.0474063 Z" id="Combined-Shape" fill="#1A2674"></path>
                <circle id="Oval-6-Copy" stroke="#1A2674" stroke-width="6" cx="75" cy="75" r="75"></circle>
            </g>
        </g>
    </g>
</svg>